<svg version="1.2" xmlns="http://www.w3.org/2000/svg" viewBox="0 0 1099 1099" width="1099" height="1099"><style>tspan{white-space:pre}.a{fill:#1466ab}.b{fill:#ccc}.c{fill:#fff}.d{font-size: 150px;fill: #594ccc;font-weight: 700;font-family: "DejaVuSans-Bold", "DejaVu Sans"}</style><path fill-rule="evenodd" class="a" d="m995 531l23.3 48 9.7 19.3-21.6 3.5c-1.3 0-3.5 0.5-5.7 0.9-1.7 0.4-3.5 0.9-5.7 1.3-10.1 2.2-18.9 4.9-27.2 7.5-3.6 1.3-6.6 2.6-10.2 4.4-3 1.3-5.7 2.6-8.3 4-11.4 6.1-18.5 12.7-19.8 18.9-0.9 3.5 0.4 7.9 3.1 13.2 3.5 6.6 9.2 14 17.1 21.9l0.5 0.5c5.2 5.3 11.4 11 17.6 16.7 27.2 25.1 56.2 51.9 56.2 97.6 0 9.7-1.7 18.9-5.7 27.3-3.5 8.3-8.3 15.8-14.5 22.8-28.6 32.2-84.8 51.1-128.8 58.1l-9.7 1.7-5.7-8.3-10.1-14.9 13.6 69.9 3.5 19.3h-127.4l-2.7-13.2-16.2-88.4-33.9 83.1-3.9 9.7h-44.4l-4-9.7-33-80.4-14.9 85.3-2.2 13.6h-126.2l3.5-18.9 8.4-48.4h-97.2v-370.7h16.7c-2.2-1.7-3.9-3.5-6.1-5.2-11.4-11.9-18.9-28.2-18.9-46.2 0-18 7.5-34.3 19.3-46.2 11.5-11.4 27.7-18.9 45.7-18.9 18.1 0 34.3 7.5 46.2 18.9 11.9 11.9 19.3 28.2 19.3 46.2 0 18-7.4 34.3-19.3 46.2-1.8 1.7-3.5 3.5-5.7 5.2h16.7v276.2l48.3-278.4 2.2-13.2h49.7l4 9.7 71.2 166.2 70.8-149 4.4-8.8h45.7l2.2 12.7 53.6 275.7h1.8c4.8 0 14.9-1.7 26.8-4.8 2.2-0.9 4.4-1.3 6.1-1.7 10.6-3.1 20.7-7.1 28.2-11.5 5.2-3.5 8.8-6.1 10.5-9.2 1.3-2.2 1.8-4.9 1.8-7.9 0 0 0 0 0-0.5-0.5-14.1-22.4-33.8-40.5-49.7-7.9-7-15.3-13.6-20.6-20.2-18.5-21.1-28.2-41.3-30.4-60.2-2.2-16.3 0.5-31.3 7.1-44.9 6.1-13.2 15.8-24.6 27.7-35.2 31.2-26.8 79.1-44 121.7-49.7l11.5-1.7zm-636.6-40.9l9.3 19.3-21.1 3.1c-2.7 0.4-5.8 1.3-8.8 1.8-2.7 0.4-5.7 0.8-9.3 1.7-14.5 3.1-28.5 7.1-41.3 11.9-5.3 1.8-10.5 4-15.4 6.1q-7.2 3.3-13.2 6.6c-18.9 10.2-31.2 21.6-33.4 33.9-1.3 7 0.5 15 5.3 24.6 5.3 10.6 14.5 22.9 27.3 35.7v0.4c8.3 8.3 17.5 17.1 26.8 25.5 39.5 36.1 81.3 74.8 81.3 139.8 0 13.2-2.6 26-7.5 37.9-4.8 11.4-11.8 21.9-20.6 31.6-41.4 46.6-122.7 74.3-186.9 84.4l-10.1 1.8-5.7-8.4-48.3-70.7-17.2-25.1h30.3c7.5 0 23.8-3.1 42.2-7.9q4-1.3 9.3-2.7c15.8-4.8 32.1-11 43.9-18 9.3-5.3 15-11 18.1-16.3 3-4.8 3.9-10.1 3.9-15.8 0 0 0-0.4 0-0.9-0.9-24.2-35.1-54.9-62.8-79.6-11.9-11-22.5-20.6-30.4-29.9-26.4-29.9-40-58.9-43.5-86.2-3.1-22.8 0.9-43.9 10.1-63.3 8.8-18.5 22.9-35.2 40-50.1 45.3-38.7 114.3-63.8 176.3-72.1l11.4-1.8 5.3 10.6z"/><path fill-rule="evenodd" class="a" d="m768.2 392.9c0-0.8 0-1.3 0-2.2 0.4-1.7 0.8-3.9 1.7-5.7 1.8-3.9 4.4-7.4 7.5-10.5 1.8-6.2 5.3-11.5 10.6-15.4 5.7-4.9 13.1-7.9 21.5-8.8 2.6-0.5 4.8-0.9 6.6-0.9 4.8 0 9.2 0.9 13.6 1.8 4.9-2.7 10.1-4.4 16.3-4.4 0 0 0 0 0.4 0 1.8 0 4 0.4 6.2 0.9 2.2 0.4 3.9 0.8 5.7 1.7 10.5 4.4 18 14.1 18.5 25.5 0 0 0 0.5 0 0.9 0 7.9-3.6 15.4-9.3 20.2-3.9 3.5-8.8 6.2-14 7.5-5.8 7-15 11.9-26 13.2l-0.4 14.1-4-0.5-0.4 9.7-0.5 8.8v5.7l-1.7 41.8v2.6l25.5 19.8 7.9 6.2-2.2 10.1-6.2 28.6-5.7 26.4-20.6-17.6-97.6-84-0.5 8.3v5.3l-0.4 7.9-0.9 26.8-0.4 13.2-12.8-0.8-43-1.8h-5.3l-7.5-0.4-32.5-1.4-12.8-0.4 0.5-12.8 0.8-27.2 0.5-7.9v-4.9l0.4-6.6-95.8 62-20.7 13.7-3.5-24.7-3.9-29.9-1.4-10.1 9.3-5.7 28.5-17.1v-2.7l8-4.8 34.2-21.6v-3l8-4.9 38.6-23.7-0.4-3.1 7.9-4.8 48.8-29.9 9.7-5.8 8.8 6.6 45.2 36.1 6.2 5.3v3.5l17.1 14.5 0.5-8.4h-4l0.5-14 0.4-6.6 0.4-14.5 14.6 0.8zm-92.4 55.5l-4.8-4-5.3 4z"/><path fill-rule="evenodd" class="b" d="m867.1 706c16.7 19.4 65.5 51.5 65.5 80.5 0 11-4.4 21.6-20.2 30.8-21.1 12.8-57.6 20.7-69.5 20.7 11 15.8 21.5 31.6 32.5 47.5 57.2-9.3 135.4-39.2 135.4-92.4 0-49.2-41.7-74.7-69.4-103.8-18.5-18.9-27.7-35.1-25.1-49.2 3.5-16.3 21.6-29 48.8-39.2 12.3-4.8 26.4-8.3 41.8-10.9-7.9-15.9-15.4-32.1-23.3-48-86.6 11.5-195.2 73.5-116.5 164zm-728.4-31.2c24.6 28.6 97.6 77 97.6 120.5 0 16.7-7.1 32.6-30.4 46.2-31.2 18.5-85.7 30.8-103.3 30.8 16.3 23.3 32.5 47 48.4 70.8 85.3-13.7 201.8-58.5 201.8-138.5 0-73-62-111.3-103.4-154-27.7-28.5-41.3-53.6-36.9-75.2 4.4-23.7 31.2-43.5 72.1-58.4 18.5-6.6 39.6-12.4 62.4-15.9-11.8-24.2-23.3-47.9-34.7-72.1-129.2 17.6-290.6 109.5-173.6 245.8zm252.7 210.7h81.8v-338.6h-81.8zm90.2-405.9c0-27.3-22.1-49.3-49.3-49.3-27.2 0-49.2 22-49.2 49.3 0 27.2 22 49.2 49.2 49.2 27.2 0 49.3-22 49.3-49.2zm71.6 51.4l-73.4 421.8h93.6l24.6-140.8 53.7 132h22.8l54.6-133.3 25.9 142.1h94.9l-77.8-403.7h-22.4l-86.2 181.1-84.8-199.2h-25.5z"/><path fill-rule="evenodd" class="b" d="m813.5 401.3c-0.9 5.3-5.3 8.8-11.9 8.8-6.2 0-12.8-5.7-13.2-11-0.4-5.7 3.5-9.6 8.7-11q-0.1-0.6-0.4-1.7c-0.4-4.4 12.4-16.3 22.5-16.3 10.1 0 12.7 1.7 17.6 4.8 1.7-4.4 5.7-7.5 11.8-7.5 6.6 0 13.2 4.9 13.2 11 0.4 6.2-7.9 11-12.3 11-4 0-2.6 0-4-0.4-0.8 7.9-14.5 13.6-22.4 13.6-7.5 0-6.6-0.4-9.6-1.3zm-16.4-13.2c0.4 2 0.1-0.4 0.1 0q-0.1 0-0.1 0zm-75.5 40.9v3.5l42.2 33.9v3.9l40 33.9v4l35.2 27.2-6.6 29-157.4-135.4-168.8 109.5-4.4-29.5 37.8-21.9-0.5-3.1 42.7-26-0.5-3.5 46.6-28.6v-3l48.4-30zm-53.6 74.8l43 1.8-1.3 35.1-43.1-1.7zm-45.2-1.8l40.4 1.8-1.3 34.7-40.4-1.7zm47-37l42.6 1.8-0.9 33.8-43-1.7zm-45.7-1.8l40.4 1.8-1.3 33.4-40-1.8zm142.8-51.8l49.7 2.2-0.4 6.1h-4l-1.3 33-41.8-1.8 1.4-33.4h-4zm44 46.6l-1.8 42.2-40.4-34.7 0.4-9.2z"/><path fill-rule="evenodd" class="a" d="m995 469.9h3.5v-14.5h4.9v-3.1h-13.7v3.1h5.3zm14.1 0v-14.1l3.5 14.1h3.5l3.5-14.1v14.1h3.5v-17.6h-5.2l-3.5 13.2-3.6-13.2h-5.2v17.6z"/><path fill-rule="evenodd" class="c" d="m864.4 702.1c16.3 18.9 65.5 51.4 65.5 80.5-0.4 11-4.8 21.5-20.2 30.7-21.5 12.4-57.6 20.3-69.4 20.3 10.5 15.8 21.5 31.6 32.5 47.5 57.1-9.3 135.4-39.2 135.4-92.4 0-48.8-41.8-74.3-69.5-103.3-18.4-18.9-27.7-35.2-25-49.7 3.1-15.8 21.1-29 48.8-39.2 12.3-4.3 26.4-7.9 41.7-10.5-7.9-15.8-15.8-32.1-23.7-48.4-86.2 11.9-194.7 73.5-116.1 164.5zm-728.4-31.2c24.6 28.5 97.6 76.9 97.2 120.5 0 16.2-6.6 32.1-29.9 45.7-31.7 18.9-85.7 30.8-103.3 30.8 15.8 23.7 32.1 47.5 48.3 70.8 85.3-13.7 201.8-58.1 201.8-138.1 0-73.4-62-111.3-103.7-154.4-27.3-28.5-40.9-53.6-37-74.7 4.9-24.2 31.7-43.6 72.6-58.5 18.4-7 39.5-12.3 62.4-15.8-11.9-24.2-23.3-48.4-35.2-72.2-128.8 17.2-290.1 109.5-173.2 245.9zm252.4 210.2h81.7v-338.6h-81.7zm90.1-405.9c0-27.3-22-49.3-49.3-49.3-27.2 0-49.2 22-49.2 49.3 0 27.2 22 49.2 49.2 49.2 27.3 0 49.3-22 49.3-49.2zm72.1 51.9l-73.9 421.2h93.7l25-140.2 53.6 131.9h22.9l54.1-133.7 26.3 142h95l-77.8-403.2h-22.4l-86.2 181.2-84.8-199.2z"/><path fill-rule="evenodd" class="c" d="m810.8 397.3c-0.9 4.9-5.3 8.4-11.9 8.4-6.5 0-13.1-5.3-13.6-11 0-5.7 3.5-9.6 9.2-10.5-0.1-0.4-0.2-1-0.4-1.8-0.4-4.8 12.3-16.3 22-16.3 10.1 0 13.2 1.8 18 4.9 1.3-4.4 5.7-8 11.9-8 6.1 0 12.7 5.3 13.2 11.5 0 6.1-7.9 11-12.3 11-4.4 0-2.7-0.5-4-0.5-0.9 7.5-14.5 13.7-22.4 13.7-7.5 0-6.6-0.5-9.7-1.4zm-16.3-13.1c0.4 1.8 0.1-0.8 0.1 0q-0.1 0-0.1 0zm-75.6 40.8v3.6l42.2 33.4-0.4 3.9 40.4 34.3v3.6l34.8 27.7-6.2 29-157.4-135.9-169.2 109.9-4-29.9 37.4-21.9v-3.1l42.2-26v-3l46.2-28.6v-3.1l48.8-29.9zm-53.7 74.7l43.1 1.8-1.3 34.7-43.1-1.7zm-45.3-2.2l40.5 1.7-1.3 35.2-40.5-1.7zm46.6-36.5l43.1 1.7-1.3 33.4-42.7-1.7zm-45.2-2.2l40.4 1.7-1.3 33.9-40.5-1.8zm142.9-51.8l49.2 2.2v6.5l-4.4-0.4-0.8 33-41.8-1.8 1.3-32.9h-3.9zm43.5 46.6l-1.3 42.2-40.5-34.3 0.5-9.7z"/><text style="transform:matrix(1,0,0,1,343,157)" ></text><text style="transform:matrix(1,.001,-0.001,1,344.993,212.363)" ><tspan x="0" y="114" class="d">O</tspan><tspan  y="114" class="d">p</tspan><tspan  y="114" class="d">e</tspan><tspan  y="114" class="d">n
</tspan></text></svg>